PathFileType	4	(X/Y/Z)	D:\datacapture\jf2lin\2017-09-14 IITTimeSync\timesync2.trc
DataRate	CameraRate	NumFrames	NumMarkers	Units	OrigDataRate	OrigDataStartFrame	OrigNumFrames
100.00	100.00	      359	3	mm	100.00	360	      2873
Frame#	Time	M1			M2			M3			
		X1	Y1	Z1	X2	Y2	Z2	X3	Y3	Z3	

360	3.590										
361	3.600										
362	3.610										
363	3.620										
364	3.630										
365	3.640										
366	3.650										
367	3.660										
368	3.670										
369	3.680										
370	3.690										
371	3.700										
372	3.710										
373	3.720										
374	3.730										
375	3.740										
376	3.750										
377	3.760										
378	3.770										
379	3.780										
380	3.790										
381	3.800										
382	3.810										
383	3.820										
384	3.830										
385	3.840										
386	3.850										
387	3.860										
388	3.870										
389	3.880										
390	3.890										
391	3.900										
392	3.910										
393	3.920										
394	3.930										
395	3.940										
396	3.950										
397	3.960										
398	3.970										
399	3.980										
400	3.990										
401	4.000										
402	4.010										
403	4.020										
404	4.030										
405	4.040										
406	4.050										
407	4.060										
408	4.070										
409	4.080										
410	4.090										
411	4.100										
412	4.110										
413	4.120										
414	4.130										
415	4.140										
416	4.150										
417	4.160										
418	4.170										
419	4.180										
420	4.190										
421	4.200										
422	4.210										
423	4.220										
424	4.230										
425	4.240										
426	4.250										
427	4.260										
428	4.270										
429	4.280										
430	4.290										
431	4.300										
432	4.310										
433	4.320										
434	4.330										
435	4.340										
436	4.350										
437	4.360										
438	4.370										
439	4.380										
440	4.390										
441	4.400										
442	4.410										
443	4.420										
444	4.430										
445	4.440										
446	4.450										
447	4.460										
448	4.470										
449	4.480										
450	4.490										
451	4.500										
452	4.510										
453	4.520										
454	4.530										
455	4.540										
456	4.550										
457	4.560										
458	4.570										
459	4.580										
460	4.590										
461	4.600										
462	4.610										
463	4.620										
464	4.630										
465	4.640										
466	4.650										
467	4.660										
468	4.670										
469	4.680										
470	4.690										
471	4.700										
472	4.710										
473	4.720										
474	4.730										
475	4.740										
476	4.750										
477	4.760										
478	4.770										
479	4.780										
480	4.790										
481	4.800										
482	4.810										
483	4.820										
484	4.830										
485	4.840										
486	4.850										
487	4.860										
488	4.870										
489	4.880										
490	4.890										
491	4.900										
492	4.910										
493	4.920										
494	4.930										
495	4.940										
496	4.950										
497	4.960										
498	4.970										
499	4.980										
500	4.990										
501	5.000										
502	5.010										
503	5.020										
504	5.030										
505	5.040										
506	5.050										
507	5.060										
508	5.070										
509	5.080										
510	5.090										
511	5.100										
512	5.110										
513	5.120										
514	5.130										
515	5.140										
516	5.150										
517	5.160										
518	5.170										
519	5.180										
520	5.190										
521	5.200										
522	5.210										
523	5.220										
524	5.230										
525	5.240										
526	5.250										
527	5.260										
528	5.270										
529	5.280										
530	5.290										
531	5.300										
532	5.310										
533	5.320										
534	5.330										
535	5.340										
536	5.350										
537	5.360										
538	5.370										
539	5.380										
540	5.390										
541	5.400										
542	5.410										
543	5.420										
544	5.430										
545	5.440										
546	5.450										
547	5.460										
548	5.470										
549	5.480										
550	5.490										
551	5.500										
552	5.510										
553	5.520										
554	5.530										
555	5.540										
556	5.550										
557	5.560										
558	5.570										
559	5.580										
560	5.590										
561	5.600										
562	5.610										
563	5.620										
564	5.630										
565	5.640										
566	5.650										
567	5.660										
568	5.670										
569	5.680										
570	5.690										
571	5.700										
572	5.710										
573	5.720										
574	5.730										
575	5.740										
576	5.750										
577	5.760										
578	5.770										
579	5.780										
580	5.790										
581	5.800										
582	5.810										
583	5.820										
584	5.830										
585	5.840										
586	5.850										
587	5.860										
588	5.870										
589	5.880										
590	5.890										
591	5.900										
592	5.910										
593	5.920										
594	5.930										
595	5.940										
596	5.950										
597	5.960										
598	5.970										
599	5.980										
600	5.990										
601	6.000										
602	6.010										
603	6.020										
604	6.030										
605	6.040										
606	6.050										
607	6.060										
608	6.070										
609	6.080										
610	6.090										
611	6.100										
612	6.110										
613	6.120										
614	6.130										
615	6.140										
616	6.150										
617	6.160										
618	6.170										
619	6.180										
620	6.190										
621	6.200										
622	6.210										
623	6.220										
624	6.230										
625	6.240										
626	6.250										
627	6.260										
628	6.270										
629	6.280										
630	6.290										
631	6.300										
632	6.310										
633	6.320										
634	6.330										
635	6.340										
636	6.350										
637	6.360										
638	6.370										
639	6.380										
640	6.390										
641	6.400										
642	6.410										
643	6.420										
644	6.430										
645	6.440										
646	6.450										
647	6.460										
648	6.470										
649	6.480										
650	6.490										
651	6.500										
652	6.510										
653	6.520										
654	6.530										
655	6.540										
656	6.550										
657	6.560										
658	6.570										
659	6.580										
660	6.590										
661	6.600										
662	6.610										
663	6.620										
664	6.630										
665	6.640										
666	6.650										
667	6.660										
668	6.670										
669	6.680										
670	6.690										
671	6.700										
672	6.710										
673	6.720										
674	6.730										
675	6.740										
676	6.750										
677	6.760										
678	6.770										
679	6.780										
680	6.790										
681	6.800										
682	6.810										
683	6.820										
684	6.830										
685	6.840										
686	6.850										
687	6.860										
688	6.870										
689	6.880										
690	6.890										
691	6.900										
692	6.910										
693	6.920										
694	6.930										
695	6.940										
696	6.950										
697	6.960										
698	6.970										
699	6.980										
700	6.990										
701	7.000										
702	7.010										
703	7.020										
704	7.030										
705	7.040	505.53171	1289.88892	938.17493	496.76672	1333.96167	908.16736	469.73523	1453.29492	826.35065	
706	7.050	503.57758	1286.98596	935.82672	495.49997	1331.24963	906.06714	471.08362	1451.38477	824.99890	
707	7.060	502.55176	1284.23804	933.33752	495.22333	1328.80139	903.70013	472.72998	1449.66309	823.82330	
708	7.070	501.23441	1281.95959	930.90820	494.81836	1326.11230	901.65112	473.71649	1448.30933	822.84491	
709	7.080	499.67834	1279.30017	929.57178	494.19434	1323.91785	900.15540	474.96133	1446.83179	821.14520	
710	7.090	498.55331	1277.11816	927.36676	494.00208	1321.87720	897.20642	477.03146	1445.04468	819.94922	
711	7.100	497.88940	1274.77979	925.45953	491.73474	1318.72949	897.65271	478.74643	1443.55627	818.25262	
712	7.110	496.46207	1273.00220	923.36017	490.68326	1316.81677	895.80579	480.12964	1442.71973	817.41492	
713	7.120	495.01901	1271.28943	921.31470	489.56863	1314.96729	894.37177	482.16464	1441.55286	816.20984	
714	7.130	494.29272	1269.39026	918.88770	488.90637	1313.84338	892.39349	484.83279	1440.82861	815.09418	
715	7.140	492.47144	1268.30200	916.91675	489.18240	1312.64636	890.55273				
716	7.150	491.15216	1267.18530	914.83093	489.24985	1311.66565	888.19812				
717	7.160	489.86050	1266.36316	913.06915	488.95190	1311.11523	886.53363				
718	7.170	488.51846	1265.73315	911.61487	488.91626	1310.59241	884.64655				
